<svg preserveAspectRatio="none" width="100%" height="100%" overflow="visible" style="display: block;" viewBox="0 0 20 50" fill="none" xmlns="http://www.w3.org/2000/svg">
<g id="Group 3">
<path id="Subtract" d="M10 0C15.5229 0 20 4.47707 20 10C20 15.5229 15.5229 20 10 20C4.47727 19.9999 3.35714e-05 15.5228 0 10C0 4.47715 4.47725 0.000138205 10 0ZM10.0508 4.83789C7.23938 4.83789 4.95117 7.12607 4.95117 9.9375C4.95125 10.7973 5.17181 11.6444 5.59082 12.4004L4.85156 15.1611L7.62695 14.418C8.37305 14.8225 9.20703 15.0361 10.0508 15.0361C12.8618 15.0359 15.1492 12.7486 15.1494 9.9375C15.1494 7.12619 12.862 4.83809 10.0508 4.83789ZM10.0508 5.80176C12.3308 5.80196 14.1855 7.65745 14.1855 9.9375C14.1853 12.2173 12.3306 14.0721 10.0508 14.0723C9.31141 14.0723 8.58118 13.8695 7.93945 13.4873L7.76465 13.3828L6.21484 13.7988L6.62695 12.2568L6.52051 12.0811C6.12494 11.4311 5.91513 10.6901 5.91504 9.9375C5.91504 7.65733 7.77064 5.80176 10.0508 5.80176ZM8.66406 7.66406C8.46655 7.55265 8.20696 7.61543 8.03125 7.75879C7.72784 8.00598 7.58151 8.39311 7.58594 8.77637C7.58705 8.88516 7.60032 8.99416 7.62598 9.09961C7.68731 9.35277 7.80397 9.58874 7.93555 9.81348C8.03483 9.98304 8.1432 10.1473 8.25977 10.3057C8.64035 10.823 9.11398 11.2734 9.66309 11.6094C9.93704 11.7773 10.2323 11.9244 10.5381 12.0254C10.8807 12.1387 11.1867 12.2568 11.5566 12.1865C11.9445 12.1129 12.3265 11.8723 12.4805 11.499C12.5262 11.3886 12.5485 11.265 12.5234 11.1484C12.4697 10.9064 12.1425 10.7627 11.9473 10.6455C11.7375 10.52 11.464 10.3805 11.2168 10.4814C11.0273 10.5593 10.9059 10.8561 10.7832 11.0078C10.7202 11.085 10.6451 11.0975 10.5488 11.0586C9.83691 10.7752 9.29128 10.2995 8.89844 9.64453C8.83204 9.54298 8.84349 9.46246 8.92383 9.36816C9.04261 9.22874 9.19169 9.06974 9.22363 8.88184C9.25598 8.69388 9.16738 8.47304 9.08984 8.30566C8.99051 8.09138 8.87835 7.78516 8.66406 7.66406Z" fill="var(--fill-0, #DDA152)"/>
<path id="Subtract_2" d="M10 30C11.3498 30 12.6595 30.2646 13.8926 30.7861C15.0834 31.2898 16.153 32.0105 17.0713 32.9287C17.9895 33.8469 18.7102 34.9166 19.2139 36.1074C19.7354 37.3405 20 38.6502 20 40C20 41.3498 19.7354 42.6595 19.2139 43.8926C18.7102 45.0834 17.9895 46.153 17.0713 47.0713C16.153 47.9895 15.0834 48.7102 13.8926 49.2139C12.6595 49.7354 11.3498 50 10 50C8.65019 50 7.34053 49.7354 6.10742 49.2139C4.9166 48.7102 3.84694 47.9895 2.92871 47.0713C2.01048 46.153 1.28981 45.0834 0.786133 43.8926C0.264565 42.6595 9.47662e-08 41.3498 0 40C0 38.6502 0.264565 37.3405 0.786133 36.1074C1.28982 34.9166 2.01048 33.8469 2.92871 32.9287C3.84694 32.0105 4.9166 31.2898 6.10742 30.7861C7.34053 30.2646 8.65019 30 10 30ZM5.02441 44.2178C5.21701 44.3297 5.44088 44.3945 5.67969 44.3945H14.3203C14.5591 44.3945 14.783 44.3297 14.9756 44.2178L11.2754 40.4619L11.0039 40.7227C10.7369 40.988 10.3825 41.1337 10.0059 41.1338C9.62919 41.1338 9.2747 40.988 9.00781 40.7227L8.72949 40.457L5.02441 44.2178ZM4.47754 36.4004C4.41048 36.5575 4.37311 36.7304 4.37305 36.9121V43.0879C4.37309 43.3207 4.43416 43.5393 4.54102 43.7285L8.23242 39.9824L4.47754 36.4004ZM11.7734 39.9863L15.459 43.7285C15.5659 43.5392 15.627 43.3198 15.627 43.0869V36.9121C15.627 36.705 15.6262 36.509 15.5938 36.335L11.7734 39.9863ZM5.67969 35.6055C5.39037 35.6055 5.1228 35.7001 4.90625 35.8594L9.48828 40.2295L9.49121 40.2324C9.62865 40.3699 9.81161 40.4463 10.0059 40.4463C10.2001 40.4463 10.3831 40.3698 10.5205 40.2324L10.5254 40.2275L15.1963 35.7637C15.0036 35.6631 14.724 35.6055 14.3203 35.6055H5.67969Z" fill="var(--fill-0, #DDA152)"/>
</g>
</svg>
