<svg preserveAspectRatio="none" width="100%" height="100%" overflow="visible" style="display: block;" viewBox="0 0 228.736 27.5137" fill="none" xmlns="http://www.w3.org/2000/svg">
<g id="Group">
<path id="Vector" d="M36.8446 27.4962H31.7213V7.56853L18.414 24.1029L5.12332 7.56853V27.4962H0V0H5.12332L18.414 17.0167L31.7213 0H36.8446V27.4962Z" fill="var(--fill-0, white)"/>
<path id="Vector_2" d="M70.246 19.6456C70.246 23.9539 66.7029 27.497 62.3946 27.497H49.3202C45.012 27.497 41.5188 23.9539 41.5188 19.6456V14.8883C41.5188 10.58 45.012 7.03696 49.3202 7.03696H62.3946C66.7029 7.03696 70.246 10.58 70.246 14.8883V19.6456ZM60.1823 23.9872C63.3594 23.9872 65.2723 22.54 65.2723 19.3961V15.0879C65.2723 11.9607 63.3594 10.4969 60.1823 10.4969H51.5991C48.422 10.4969 46.4758 11.944 46.4758 15.0879V19.3961C46.4758 22.5234 48.422 23.9872 51.5991 23.9872H60.1823Z" fill="var(--fill-0, white)"/>
<path id="Vector_3" d="M102.916 27.4962H97.9253V20.4101L91.5211 27.4962H81.8567C77.5485 27.4962 74.0553 23.9532 74.0553 19.6449V14.8876C74.0553 10.5793 77.5485 7.03624 81.8567 7.03624H97.9253V0H102.916V27.4962ZM84.0857 10.5128C80.9584 10.5128 78.9956 11.96 78.9956 15.1038V19.412C78.9956 22.5393 80.9418 24.0031 84.0857 24.0031H89.9908L97.9253 15.2036V10.5294H84.0857V10.5128Z" fill="var(--fill-0, white)"/>
<path id="Vector_4" d="M112.63 19.4128C112.63 22.54 114.576 24.0038 117.72 24.0038H122.477L130.412 15.2043V7.03696H135.402V27.497H130.412V20.4274L124.008 27.5136H115.474C111.166 27.5136 107.673 23.9705 107.673 19.6623V7.0536H112.613V19.446L112.63 19.4128Z" fill="var(--fill-0, white)"/>
<path id="Vector_5" d="M140.525 27.4962V0H145.515V27.4962H140.525Z" fill="var(--fill-0, white)"/>
<path id="Vector_6" d="M177.486 14.8716V18.9969H154.93V19.4128C154.93 22.54 156.877 24.0038 160.054 24.0038H174.891V27.497H157.775C153.467 27.497 149.973 23.9539 149.973 19.6456V14.8883C149.973 10.58 153.467 7.03696 157.775 7.03696H169.618C173.927 7.03696 177.47 10.58 177.47 14.8883L177.486 14.8716ZM172.496 15.1045C172.496 11.9773 170.583 10.5135 167.406 10.5135H160.054C156.877 10.5135 154.93 11.9607 154.93 15.1045V15.5204H172.496V15.1045Z" fill="var(--fill-0, white)"/>
<path id="Vector_7" d="M199.992 10.5125H194.586L186.652 19.312V27.4794H181.661V7.01936H186.652V14.1055L193.056 7.01936H199.992V10.5125Z" fill="var(--fill-0, white)"/>
<path id="Vector_8" d="M228.719 23.9862V27.4794H201.539V23.8032L221.101 10.5125H203.319V7.01936H228.736V10.7454L209.124 24.0028H228.736L228.719 23.9862Z" fill="var(--fill-0, white)"/>
</g>
</svg>
