<svg preserveAspectRatio="none" width="100%" height="100%" overflow="visible" style="display: block;" viewBox="0 0 160.287 10.2619" fill="none" xmlns="http://www.w3.org/2000/svg">
<g id="Group">
<path id="Vector" d="M1.34742 10.1633H5.10469e-05V0.748332H6.65371V1.91272H1.34742V10.1633ZM1.21435 5.20628H6.07151V6.37067H1.21435V5.20628Z" fill="var(--fill-0, #DDA152)"/>
<path id="Vector_2" d="M11.1282 10.2469C10.5127 10.2469 9.98046 10.1304 9.5147 9.9142C9.04895 9.68132 8.69963 9.34863 8.43348 8.88288C8.18397 8.41712 8.05089 7.83493 8.05089 7.1363V3.02766H9.34836V6.98659C9.34836 7.68522 9.5147 8.21751 9.84738 8.56682C10.1801 8.91614 10.6625 9.09912 11.2613 9.09912C11.7104 9.09912 12.093 8.99931 12.4257 8.81634C12.7584 8.63336 13.0079 8.36722 13.1908 8.00127C13.3738 7.63532 13.457 7.21947 13.457 6.72045V3.02766H14.7545V10.1637H13.5235V8.23415L13.7231 8.7498C13.4903 9.23219 13.1409 9.59815 12.6752 9.84766C12.2094 10.1138 11.6771 10.2302 11.0949 10.2302L11.1282 10.2469Z" fill="var(--fill-0, #DDA152)"/>
<path id="Vector_3" d="M17.2497 10.1634V3.02738H18.4806V4.97357L18.3642 4.49118C18.5638 3.99216 18.8965 3.62621 19.3622 3.36006C19.828 3.09391 20.4102 2.97748 21.0755 2.97748V4.22504C21.0755 4.22504 20.9757 4.22504 20.9258 4.22504H20.7761C20.0941 4.22504 19.5452 4.42464 19.1293 4.8405C18.7301 5.25635 18.5305 5.85518 18.5305 6.63699V10.1967H17.233L17.2497 10.1634Z" fill="var(--fill-0, #DDA152)"/>
<path id="Vector_4" d="M26.4816 2.96057C27.0638 2.96057 27.5795 3.07701 28.0286 3.29325C28.4777 3.5095 28.827 3.85881 29.0765 4.30794C29.3261 4.77369 29.4591 5.33925 29.4591 6.03789V10.1465H28.1617V6.18759C28.1617 5.50559 27.9953 4.97331 27.6626 4.62399C27.33 4.27467 26.8476 4.0917 26.2487 4.0917C25.783 4.0917 25.3838 4.17486 25.0511 4.35784C24.7184 4.54081 24.4522 4.80696 24.2693 5.15628C24.0863 5.5056 24.0031 5.93808 24.0031 6.45374V10.1299H22.7057V2.99384H23.9366V4.9234L23.737 4.40774C23.9699 3.94198 24.3358 3.57604 24.8182 3.30989C25.3006 3.04374 25.8661 2.9273 26.5149 2.9273L26.4816 2.96057Z" fill="var(--fill-0, #DDA152)"/>
<path id="Vector_5" d="M32.4866 1.66341C32.2371 1.66341 32.0208 1.58024 31.8545 1.43054C31.6881 1.2642 31.605 1.06459 31.605 0.831707C31.605 0.598829 31.6881 0.382584 31.8545 0.232877C32.0208 0.0665356 32.2204 0 32.4866 0C32.7527 0 32.9523 0.0831697 33.1187 0.232877C33.285 0.399218 33.3682 0.582191 33.3682 0.815069C33.3682 1.04795 33.285 1.2642 33.1353 1.43054C32.9856 1.59688 32.7694 1.68004 32.5032 1.68004L32.4866 1.66341ZM31.8379 10.1635V3.02741H33.1353V10.1635H31.8379Z" fill="var(--fill-0, #DDA152)"/>
<path id="Vector_6" d="M34.5658 4.09062V3.02603H39.1236V4.09062H34.5658ZM38.0424 10.2452C37.3271 10.2452 36.7616 10.0456 36.379 9.66305C35.9797 9.28047 35.7801 8.73154 35.7801 8.01628V1.47906H37.0776V7.96637C37.0776 8.34896 37.1774 8.64837 37.3604 8.84798C37.56 9.04759 37.8261 9.16402 38.1921 9.16402C38.5913 9.16402 38.924 9.04759 39.2068 8.83134L39.606 9.76285C39.4064 9.92919 39.1735 10.0623 38.9074 10.1454C38.6412 10.2286 38.3418 10.2619 38.059 10.2619L38.0424 10.2452Z" fill="var(--fill-0, #DDA152)"/>
<path id="Vector_7" d="M44.1637 10.2469C43.5482 10.2469 43.0159 10.1304 42.5502 9.9142C42.0844 9.68132 41.7351 9.34863 41.4689 8.88288C41.2194 8.41712 41.0863 7.83493 41.0863 7.1363V3.02766H42.3838V6.98659C42.3838 7.68522 42.5502 8.21751 42.8828 8.56682C43.2155 8.91614 43.6979 9.09912 44.2967 9.09912C44.7459 9.09912 45.1284 8.99931 45.4611 8.81634C45.7938 8.63336 46.0433 8.36722 46.2263 8.00127C46.4093 7.63532 46.4924 7.21947 46.4924 6.72045V3.02766H47.7899V10.1637H46.559V8.23415L46.7586 8.7498C46.5257 9.23219 46.1764 9.59815 45.7106 9.84766C45.2449 10.1138 44.7126 10.2302 44.1304 10.2302L44.1637 10.2469Z" fill="var(--fill-0, #DDA152)"/>
<path id="Vector_8" d="M50.2684 10.1634V3.02738H51.4993V4.97357L51.3829 4.49118C51.5825 3.99216 51.9152 3.62621 52.3809 3.36006C52.8467 3.09391 53.4289 2.97748 54.0943 2.97748V4.22504C54.0943 4.22504 53.9945 4.22504 53.9445 4.22504H53.7948C53.1128 4.22504 52.5639 4.42464 52.1481 4.8405C51.7488 5.25635 51.5492 5.85518 51.5492 6.63699V10.1967H50.2518L50.2684 10.1634Z" fill="var(--fill-0, #DDA152)"/>
<path id="Vector_9" d="M58.8018 10.2466C58.0366 10.2466 57.3713 10.0969 56.7891 9.78084C56.2069 9.46479 55.7578 9.03231 55.4417 8.48338C55.1257 7.93445 54.9593 7.30235 54.9593 6.60371C54.9593 5.90508 55.109 5.27299 55.4251 4.72406C55.7411 4.17513 56.157 3.74265 56.7059 3.44324C57.2548 3.12719 57.8537 2.97748 58.5357 2.97748C59.2177 2.97748 59.8331 3.12719 60.3654 3.44324C60.8977 3.74265 61.3136 4.17513 61.613 4.72406C61.9124 5.27299 62.0621 5.92172 62.0621 6.65363C62.0621 6.70353 62.0621 6.77007 62.0621 6.8366C62.0621 6.90314 62.0621 6.96967 62.0455 7.0362H55.974V6.1047H61.3635L60.8312 6.42075C60.8312 5.97163 60.748 5.55576 60.5484 5.18981C60.3488 4.8405 60.0826 4.55772 59.7333 4.35811C59.384 4.1585 58.9848 4.05869 58.5357 4.05869C58.0865 4.05869 57.6873 4.1585 57.338 4.35811C56.9887 4.55772 56.7059 4.8405 56.5229 5.20645C56.3233 5.5724 56.2235 5.98826 56.2235 6.45401V6.67025C56.2235 7.15264 56.34 7.5685 56.5562 7.93445C56.7725 8.3004 57.0885 8.59982 57.4711 8.79943C57.8537 8.99904 58.3194 9.11547 58.8351 9.11547C59.2509 9.11547 59.6335 9.04894 59.9828 8.89923C60.3322 8.74953 60.6316 8.53328 60.8977 8.2505L61.613 9.08221C61.2969 9.46479 60.8977 9.74757 60.4153 9.94718C59.9329 10.1468 59.4006 10.2466 58.8018 10.2466Z" fill="var(--fill-0, #DDA152)"/>
<path id="Vector_10" d="M66.4534 4.09159V3.02701H71.0111V4.09159H66.4534ZM67.6677 10.1631V2.3949C67.6677 1.69627 67.8673 1.13072 68.2831 0.714862C68.6824 0.299009 69.2645 0.0827567 70.0297 0.0827567C70.3125 0.0827567 70.5786 0.116034 70.8282 0.18257C71.0777 0.249107 71.2939 0.348903 71.4769 0.49861L71.0943 1.48003C70.9612 1.36359 70.8115 1.28042 70.6286 1.23052C70.4622 1.16398 70.2792 1.14734 70.0963 1.14734C69.7137 1.14734 69.4309 1.24715 69.2313 1.46339C69.0317 1.67964 68.9319 1.97905 68.9319 2.3949V3.34305L68.9651 3.94188V10.1464H67.6677V10.1631Z" fill="var(--fill-0, #DDA152)"/>
<path id="Vector_11" d="M75.1697 10.2466C74.4544 10.2466 73.8223 10.0969 73.2734 9.78084C72.7245 9.46479 72.2753 9.03231 71.9427 8.48338C71.6266 7.93445 71.4603 7.30235 71.4603 6.60371C71.4603 5.90508 71.6266 5.27299 71.9427 4.72406C72.2587 4.17513 72.7078 3.75928 73.2568 3.44324C73.8057 3.12719 74.4544 2.97748 75.1697 2.97748C75.8849 2.97748 76.517 3.12719 77.0826 3.44324C77.6482 3.75928 78.0807 4.17513 78.3967 4.72406C78.7128 5.27299 78.8791 5.90508 78.8791 6.60371C78.8791 7.30235 78.7128 7.93445 78.3967 8.48338C78.0807 9.03231 77.6315 9.46479 77.0826 9.78084C76.5337 10.0969 75.8849 10.2466 75.1697 10.2466ZM75.1697 9.11547C75.6354 9.11547 76.0347 9.01568 76.4006 8.79943C76.7666 8.58319 77.0493 8.3004 77.2489 7.91781C77.4486 7.53523 77.565 7.10275 77.565 6.58709C77.565 6.07143 77.4652 5.63894 77.2489 5.25635C77.0327 4.8904 76.7499 4.59099 76.4006 4.39138C76.0347 4.17514 75.6354 4.07533 75.1697 4.07533C74.7039 4.07533 74.3047 4.17514 73.9388 4.39138C73.5728 4.59099 73.29 4.8904 73.0738 5.25635C72.8575 5.6223 72.7577 6.07143 72.7577 6.58709C72.7577 7.10275 72.8742 7.53523 73.0738 7.91781C73.29 8.3004 73.5728 8.59982 73.9388 8.79943C74.3047 8.99904 74.7039 9.11547 75.1697 9.11547Z" fill="var(--fill-0, #DDA152)"/>
<path id="Vector_12" d="M80.6589 10.1634V3.02738H81.8899V4.97357L81.7734 4.49118C81.973 3.99216 82.3057 3.62621 82.7715 3.36006C83.2372 3.09391 83.8194 2.97748 84.4848 2.97748V4.22504C84.4848 4.22504 84.385 4.22504 84.3351 4.22504H84.1854C83.5034 4.22504 82.9544 4.42464 82.5386 4.8405C82.1394 5.25635 81.9398 5.85518 81.9398 6.63699V10.1967H80.6423L80.6589 10.1634Z" fill="var(--fill-0, #DDA152)"/>
<path id="Vector_13" d="M88.7765 4.09062V3.02603H93.3342V4.09062H88.7765ZM92.253 10.2452C91.5377 10.2452 90.9722 10.0456 90.5896 9.66305C90.1904 9.28047 89.9908 8.73154 89.9908 8.01628V1.47906H91.2882V7.96637C91.2882 8.34896 91.388 8.64837 91.571 8.84798C91.7706 9.04759 92.0368 9.16402 92.4027 9.16402C92.8019 9.16402 93.1346 9.04759 93.4174 8.83134L93.8166 9.76285C93.617 9.92919 93.3841 10.0623 93.118 10.1454C92.8518 10.2286 92.5524 10.2619 92.2696 10.2619L92.253 10.2452Z" fill="var(--fill-0, #DDA152)"/>
<path id="Vector_14" d="M99.1895 2.95996C99.7717 2.95996 100.287 3.07639 100.736 3.29264C101.186 3.50888 101.535 3.8582 101.784 4.30732C102.034 4.77308 102.167 5.33864 102.167 6.03727V10.1459H100.87V6.18698C100.87 5.50498 100.703 4.97269 100.37 4.62337C100.038 4.27406 99.5554 4.09108 98.9566 4.09108C98.4908 4.09108 98.0916 4.17425 97.7589 4.35722C97.4262 4.5402 97.1601 4.80635 96.9771 5.15567C96.7941 5.50498 96.711 5.93747 96.711 6.45313V10.1293H95.4135V0.148786H96.711V4.92279L96.4615 4.40712C96.6943 3.94137 97.0603 3.57542 97.5427 3.30928C98.0251 3.04313 98.5906 2.92668 99.2394 2.92668L99.1895 2.95996Z" fill="var(--fill-0, #DDA152)"/>
<path id="Vector_15" d="M107.723 10.2466C106.958 10.2466 106.292 10.0969 105.71 9.78084C105.128 9.46479 104.679 9.03231 104.363 8.48338C104.047 7.93445 103.88 7.30235 103.88 6.60371C103.88 5.90508 104.03 5.27299 104.346 4.72406C104.662 4.17513 105.078 3.74265 105.627 3.44324C106.176 3.12719 106.775 2.97748 107.457 2.97748C108.139 2.97748 108.754 3.12719 109.286 3.44324C109.819 3.74265 110.234 4.17513 110.534 4.72406C110.833 5.27299 110.983 5.92172 110.983 6.65363C110.983 6.70353 110.983 6.77007 110.983 6.8366C110.983 6.90314 110.983 6.96967 110.966 7.0362H104.895V6.1047H110.284L109.752 6.42075C109.752 5.97163 109.669 5.55576 109.469 5.18981C109.27 4.8405 109.004 4.55772 108.654 4.35811C108.305 4.1585 107.906 4.05869 107.457 4.05869C107.007 4.05869 106.608 4.1585 106.259 4.35811C105.91 4.55772 105.627 4.8405 105.444 5.20645C105.244 5.5724 105.144 5.98826 105.144 6.45401V6.67025C105.144 7.15264 105.261 7.5685 105.477 7.93445C105.693 8.3004 106.009 8.59982 106.392 8.79943C106.775 8.99904 107.24 9.11547 107.756 9.11547C108.172 9.11547 108.554 9.04894 108.904 8.89923C109.253 8.74953 109.552 8.53328 109.819 8.2505L110.534 9.08221C110.218 9.46479 109.819 9.74757 109.336 9.94718C108.854 10.1468 108.322 10.2466 107.723 10.2466Z" fill="var(--fill-0, #DDA152)"/>
<path id="Vector_16" d="M117.919 10.1633H116.572V0.748332H123.226V1.91272H117.919V10.1633ZM117.786 5.20628H122.644V6.37067H117.786V5.20628Z" fill="var(--fill-0, #DDA152)"/>
<path id="Vector_17" d="M127.717 10.2469C127.102 10.2469 126.569 10.1304 126.104 9.9142C125.638 9.68132 125.289 9.34863 125.022 8.88288C124.773 8.41712 124.64 7.83493 124.64 7.1363V3.02766H125.937V6.98659C125.937 7.68522 126.104 8.21751 126.436 8.56682C126.769 8.91614 127.251 9.09912 127.85 9.09912C128.299 9.09912 128.682 8.99931 129.015 8.81634C129.347 8.63336 129.597 8.36722 129.78 8.00127C129.963 7.63532 130.046 7.21947 130.046 6.72045V3.02766H131.343V10.1637H130.112V8.23415L130.312 8.7498C130.079 9.23219 129.73 9.59815 129.264 9.84766C128.798 10.1138 128.266 10.2302 127.684 10.2302L127.717 10.2469Z" fill="var(--fill-0, #DDA152)"/>
<path id="Vector_18" d="M132.79 4.09062V3.02603H137.348V4.09062H132.79ZM136.267 10.2452C135.552 10.2452 134.986 10.0456 134.604 9.66305C134.204 9.28047 134.005 8.73154 134.005 8.01628V1.47906H135.302V7.96637C135.302 8.34896 135.402 8.64837 135.585 8.84798C135.785 9.04759 136.051 9.16402 136.417 9.16402C136.816 9.16402 137.149 9.04759 137.431 8.83134L137.831 9.76285C137.631 9.92919 137.398 10.0623 137.132 10.1454C136.866 10.2286 136.566 10.2619 136.284 10.2619L136.267 10.2452Z" fill="var(--fill-0, #DDA152)"/>
<path id="Vector_19" d="M142.388 10.2469C141.773 10.2469 141.241 10.1304 140.775 9.9142C140.309 9.68132 139.96 9.34863 139.694 8.88288C139.444 8.41712 139.311 7.83493 139.311 7.1363V3.02766H140.608V6.98659C140.608 7.68522 140.775 8.21751 141.107 8.56682C141.44 8.91614 141.923 9.09912 142.521 9.09912C142.971 9.09912 143.353 8.99931 143.686 8.81634C144.018 8.63336 144.268 8.36722 144.451 8.00127C144.634 7.63532 144.717 7.21947 144.717 6.72045V3.02766H146.015V10.1637H144.784V8.23415L144.983 8.7498C144.75 9.23219 144.401 9.59815 143.935 9.84766C143.47 10.1138 142.937 10.2302 142.355 10.2302L142.388 10.2469Z" fill="var(--fill-0, #DDA152)"/>
<path id="Vector_20" d="M148.493 10.1634V3.02738H149.724V4.97357L149.608 4.49118C149.807 3.99216 150.14 3.62621 150.606 3.36006C151.071 3.09391 151.654 2.97748 152.319 2.97748V4.22504C152.319 4.22504 152.219 4.22504 152.169 4.22504H152.019C151.337 4.22504 150.789 4.42464 150.373 4.8405C149.973 5.25635 149.774 5.85518 149.774 6.63699V10.1967H148.476L148.493 10.1634Z" fill="var(--fill-0, #DDA152)"/>
<path id="Vector_21" d="M157.026 10.2466C156.261 10.2466 155.596 10.0969 155.014 9.78084C154.431 9.46479 153.982 9.03231 153.666 8.48338C153.35 7.93445 153.184 7.30235 153.184 6.60371C153.184 5.90508 153.334 5.27299 153.65 4.72406C153.966 4.17513 154.382 3.74265 154.93 3.44324C155.479 3.12719 156.078 2.97748 156.76 2.97748C157.442 2.97748 158.058 3.12719 158.59 3.44324C159.122 3.74265 159.538 4.17513 159.838 4.72406C160.137 5.27299 160.287 5.92172 160.287 6.65363C160.287 6.70353 160.287 6.77007 160.287 6.8366C160.287 6.90314 160.287 6.96967 160.27 7.0362H154.199V6.1047H159.588L159.056 6.42075C159.056 5.97163 158.973 5.55576 158.773 5.18981C158.573 4.8405 158.307 4.55772 157.958 4.35811C157.609 4.1585 157.209 4.05869 156.76 4.05869C156.311 4.05869 155.912 4.1585 155.563 4.35811C155.213 4.55772 154.93 4.8405 154.747 5.20645C154.548 5.5724 154.448 5.98826 154.448 6.45401V6.67025C154.448 7.15264 154.565 7.5685 154.781 7.93445C154.997 8.3004 155.313 8.59982 155.696 8.79943C156.078 8.99904 156.544 9.11547 157.06 9.11547C157.475 9.11547 157.858 9.04894 158.207 8.89923C158.557 8.74953 158.856 8.53328 159.122 8.2505L159.838 9.08221C159.521 9.46479 159.122 9.74757 158.64 9.94718C158.157 10.1468 157.625 10.2466 157.026 10.2466Z" fill="var(--fill-0, #DDA152)"/>
</g>
</svg>
