<svg preserveAspectRatio="none" width="100%" height="100%" overflow="visible" style="display: block;" viewBox="0 0 120 27.0762" fill="none" xmlns="http://www.w3.org/2000/svg">
<g id="Group 2">
<path id="Subtract" d="M106.462 0C113.938 4.94271e-05 120 6.06135 120 13.5381C120 21.0149 113.938 27.0761 106.462 27.0762C98.9847 27.0762 92.9235 21.0149 92.9235 13.5381C92.9236 6.06132 98.9847 0 106.462 0ZM102.772 8.93555C101.178 8.93555 99.8854 10.2272 99.8854 11.8213V15.2549C99.8854 16.8489 101.178 18.1406 102.772 18.1406H110.15C111.744 18.1406 113.037 16.8489 113.037 15.2549V11.8213C113.037 10.228 111.744 8.93555 110.15 8.93555H102.772ZM104.818 11.9004C104.818 11.751 105.261 11.6578 105.391 11.7314L108.559 13.4541C108.692 13.5304 108.831 13.7223 108.697 13.7949L105.388 15.4326C105.258 15.5029 104.818 15.4088 104.818 15.2607V11.9004Z" fill="var(--fill-0, #C69D33)"/>
<path id="Subtract_2" d="M44.5125 0C51.9894 0 58.0506 6.06125 58.0506 13.5381C58.0505 21.0149 51.9893 27.0762 44.5125 27.0762C37.0356 27.0762 30.9744 21.0149 30.9744 13.5381C30.9744 6.06125 37.0356 7.21585e-06 44.5125 0ZM41.7 6.49316C39.3663 6.4932 37.4676 8.39197 37.4675 10.7256V16.3516C37.4675 18.6852 39.3663 20.584 41.7 20.584H47.325C49.6586 20.584 51.5574 18.6852 51.5574 16.3516V10.7256C51.5574 8.39195 49.6586 6.49316 47.325 6.49316H41.7ZM47.325 7.81934C48.9279 7.81957 50.2312 9.12264 50.2312 10.7256V16.3516C50.2312 17.9545 48.9279 19.2586 47.325 19.2588H41.699C40.096 19.2586 38.7918 17.9546 38.7918 16.3516V10.7256C38.7918 9.12335 40.096 7.8195 41.699 7.81934H47.325ZM44.5701 10.0684C42.6565 10.0684 41.1004 11.6245 41.1004 13.5381C41.1004 15.4517 42.6572 17.0078 44.5701 17.0078C46.4836 17.0077 48.0398 15.4509 48.0398 13.5381C48.0398 11.6253 46.4836 10.0684 44.5701 10.0684ZM44.5701 11.3154C45.7954 11.3155 46.7927 12.3128 46.7927 13.5381C46.7927 14.7634 45.7954 15.7607 44.5701 15.7607C43.3447 15.7607 42.3474 14.7635 42.3474 13.5381C42.3474 12.3127 43.3447 11.3154 44.5701 11.3154ZM48.242 9.00879C47.7857 9.00887 47.4168 9.37947 47.4168 9.83496C47.4168 10.2912 47.7865 10.661 48.242 10.6611C48.6983 10.6611 49.0681 10.2905 49.0681 9.83496C49.0689 9.37942 48.6983 9.00879 48.242 9.00879Z" fill="var(--fill-0, #C69D33)"/>
<path id="Subtract_3" d="M13.5381 0C21.0149 3.5298e-05 27.0761 6.06134 27.0762 13.5381C27.0762 21.0149 21.0149 27.0761 13.5381 27.0762C6.06121 27.0762 0 21.0149 0 13.5381C7.98632e-05 6.06132 6.06125 0 13.5381 0ZM15.7393 4.91602C13.2735 4.91602 11.6613 6.41112 11.6611 9.11621V11.4951H8.91895V14.6162H11.6611V22.1602H15.0352V14.6162H17.5508L18.0293 11.4951H15.0342V9.46973C15.0343 8.61625 15.4534 7.78427 16.7939 7.78418H18.1553V5.12695C18.1349 5.12349 16.9108 4.91607 15.7393 4.91602Z" fill="var(--fill-0, #C69D33)"/>
<path id="Subtract_4" d="M75.4869 0C82.9637 0 89.0249 6.06125 89.0249 13.5381C89.0249 21.0149 82.9637 27.0762 75.4869 27.0762C68.0101 27.0761 61.9488 21.0148 61.9488 13.5381C61.9488 6.06129 68.01 7.65864e-05 75.4869 0ZM74.1656 14.2207L69.4566 19.6943H70.5201L74.6372 14.9082L77.9263 19.6943H81.5171L76.6353 12.5879L81.1245 7.36816H80.0611L76.1617 11.9004L73.0484 7.36816H69.4566L74.1656 14.2207ZM75.6011 12.5518L76.0787 13.2334L80.0611 18.9297H78.4273L75.1773 14.2812L74.6997 13.5996L70.9038 8.16992H72.5376L75.6011 12.5518Z" fill="var(--fill-0, #C69D33)"/>
</g>
</svg>
