<svg preserveAspectRatio="none" width="100%" height="100%" overflow="visible" style="display: block;" viewBox="0 0 130.96 130.96" fill="none" xmlns="http://www.w3.org/2000/svg">
<g id="Group">
<path id="Vector" d="M96.4009 110.513V120.694H90.756L88.236 110.513" stroke="var(--stroke-0, #D9D9D9)" stroke-width="4" stroke-miterlimit="10"/>
<path id="Vector_2" d="M34.559 110.513V120.694H40.2039L42.7239 110.513" stroke="var(--stroke-0, #D9D9D9)" stroke-width="4" stroke-miterlimit="10"/>
<path id="Vector_3" d="M26.5452 80.4742H26.6964C31.0813 80.4742 34.6094 84.0023 34.6094 88.3872V110.513H28.9141C27.5029 110.513 26.3436 109.354 26.3436 107.943V97.0057C21.8076 97.0057 18.0779 93.3265 18.0779 88.74C18.0779 84.1031 21.9084 80.4742 26.5452 80.4742Z" stroke="var(--stroke-0, #D9D9D9)" stroke-width="4" stroke-miterlimit="10"/>
<path id="Vector_4" d="M104.415 80.4742H104.263C99.8786 80.4742 96.3505 84.0023 96.3505 88.3872V110.513H102.046C103.457 110.513 104.616 109.354 104.616 107.943V97.0057C109.152 97.0057 112.882 93.3265 112.882 88.74C112.882 84.1535 109.052 80.4742 104.415 80.4742Z" stroke="var(--stroke-0, #D9D9D9)" stroke-width="4" stroke-miterlimit="10"/>
<path id="Vector_5" d="M96.4009 94.4857V78.4078C96.4009 72.7125 91.764 68.0756 86.0687 68.0756H44.8912C39.1959 68.0756 34.559 72.7125 34.559 78.4078V94.4857" stroke="var(--stroke-0, #D9D9D9)" stroke-width="4" stroke-miterlimit="10"/>
<path id="Vector_6" d="M65.5052 99.0722H34.6094V94.4857C34.6094 92.52 36.2222 90.9072 38.1879 90.9072H61.9267C63.8923 90.9072 65.5052 92.52 65.5052 94.4857V99.0722Z" stroke="var(--stroke-0, #D9D9D9)" stroke-width="4" stroke-miterlimit="10"/>
<path id="Vector_7" d="M96.4009 99.0722H65.5052V94.4857C65.5052 92.52 67.118 90.9072 69.0836 90.9072H92.8225C94.7881 90.9072 96.4009 92.52 96.4009 94.4857V99.0722Z" stroke="var(--stroke-0, #D9D9D9)" stroke-width="4" stroke-miterlimit="10"/>
<path id="Vector_8" d="M96.4009 110.513H34.559" stroke="var(--stroke-0, #D9D9D9)" stroke-width="4" stroke-miterlimit="10"/>
<g id="Group_2">
<path id="Vector_9" d="M86.1191 2V16.4651C86.1191 18.4811 84.5063 20.0939 82.4903 20.0939H48.4192C46.4032 20.0939 44.7904 18.4811 44.7904 16.4651V2" stroke="var(--stroke-0, #D9D9D9)" stroke-width="4" stroke-miterlimit="10"/>
<path id="Vector_10" d="M77.3494 20.0435V25.1844C77.3494 26.8981 75.9381 28.2589 74.2749 28.2589H56.7354C55.0218 28.2589 53.6609 26.8477 53.6609 25.1844V20.0435" stroke="var(--stroke-0, #D9D9D9)" stroke-width="4" stroke-miterlimit="10"/>
<path id="Vector_11" d="M72.4605 28.3093L70.2428 42.1191C70.0412 43.3792 68.9828 44.2864 67.6724 44.2864H63.2875C62.0275 44.2864 60.9187 43.3792 60.7171 42.1191L58.4994 28.3093" stroke="var(--stroke-0, #D9D9D9)" stroke-width="4" stroke-miterlimit="10"/>
<path id="Vector_12" d="M86.1191 10.2658H128.96" stroke="var(--stroke-0, #D9D9D9)" stroke-width="4" stroke-miterlimit="10"/>
<path id="Vector_13" d="M44.8408 10.2658H2" stroke="var(--stroke-0, #D9D9D9)" stroke-width="4" stroke-miterlimit="10"/>
<path id="Vector_14" d="M128.96 2H31.4845" stroke="var(--stroke-0, #D9D9D9)" stroke-width="4" stroke-miterlimit="10"/>
<path id="Vector_15" d="M22.5132 2H2" stroke="var(--stroke-0, #D9D9D9)" stroke-width="4" stroke-miterlimit="10"/>
<path id="Vector_16" d="M116.964 128.96H126.893C128.053 128.96 128.96 128.053 128.96 126.893V122.761C128.96 121.601 128.053 120.694 126.893 120.694H4.06644C2.90722 120.694 2 121.601 2 122.761V126.893C2 128.053 2.90722 128.96 4.06644 128.96H108.044" stroke="var(--stroke-0, #D9D9D9)" stroke-width="4" stroke-miterlimit="10"/>
<path id="Vector_17" d="M65.5052 52.0481V44.3368" stroke="var(--stroke-0, #D9D9D9)" stroke-width="4" stroke-miterlimit="10"/>
</g>
</g>
</svg>
