<svg preserveAspectRatio="none" width="100%" height="100%" overflow="visible" style="display: block;" viewBox="0 0 191.879 23.0743" fill="none" xmlns="http://www.w3.org/2000/svg">
<g id="Group">
<path id="Vector" d="M30.9039 23.0743H26.6074V6.36834L15.441 20.2391L4.29645 6.36834V23.0743H0V6.22398e-06H4.29645L15.441 14.2851L26.6074 6.22398e-06H30.9039V23.0743Z" fill="var(--fill-0, white)"/>
<path id="Vector_2" d="M58.9288 16.4879C58.9288 20.1082 55.9628 23.0743 52.3424 23.0743H41.3723C37.752 23.0743 34.8295 20.1082 34.8295 16.4879V12.4968C34.8295 8.87642 37.752 5.91034 41.3723 5.91034H52.3424C55.9628 5.91034 58.9288 8.87642 58.9288 12.4968V16.4879ZM50.4886 20.1301C53.1494 20.1301 54.7633 18.9087 54.7633 16.2916V12.6712C54.7633 10.0541 53.1712 8.8328 50.4886 8.8328H43.2915C40.6308 8.8328 38.9951 10.0541 38.9951 12.6712V16.2916C38.9951 18.9087 40.6308 20.1301 43.2915 20.1301H50.4886Z" fill="var(--fill-0, white)"/>
<path id="Vector_3" d="M86.3433 23.0743H82.1559V17.1422L76.7908 23.0743H68.6777C65.0573 23.0743 62.1349 20.1082 62.1349 16.4879V12.4968C62.1349 8.87641 65.0573 5.91034 68.6777 5.91034H82.1559V0H86.3433V23.0743ZM70.5315 8.8328C67.9144 8.8328 66.2569 10.0541 66.2569 12.6712V16.2916C66.2569 18.9087 67.8926 20.13 70.5315 20.13H75.4822L82.1559 12.7367V8.81099H70.5533L70.5315 8.8328Z" fill="var(--fill-0, white)"/>
<path id="Vector_4" d="M94.4783 16.2916C94.4783 18.9087 96.114 20.13 98.753 20.13H102.744L109.418 12.7367V5.88852H113.605V23.0525H109.418V17.1203L104.053 23.0525H96.8992C93.2788 23.0525 90.3564 20.0864 90.3564 16.4661V5.88852H94.5002V16.2916H94.4783Z" fill="var(--fill-0, white)"/>
<path id="Vector_5" d="M117.902 23.0743V0H122.089V23.0743H117.902Z" fill="var(--fill-0, white)"/>
<path id="Vector_6" d="M148.914 12.475V15.9426H129.984V16.2916C129.984 18.9087 131.619 20.13 134.28 20.13H146.733V23.0525H132.383C128.762 23.0525 125.84 20.0864 125.84 16.4661V12.475C125.84 8.8546 128.762 5.88852 132.383 5.88852H142.328C145.948 5.88852 148.914 8.8546 148.914 12.475ZM144.727 12.6712C144.727 10.0541 143.135 8.83279 140.452 8.83279H134.28C131.619 8.83279 129.984 10.0541 129.984 12.6712V13.0202H144.727V12.6712Z" fill="var(--fill-0, white)"/>
<path id="Vector_7" d="M167.779 8.8328H163.243L156.569 16.2262V23.0743H152.382V5.91034H156.569V11.8425L161.935 5.91034H167.758V8.8328H167.779Z" fill="var(--fill-0, white)"/>
<path id="Vector_8" d="M191.879 20.13V23.0525H169.066V19.9774L185.467 8.81098H170.549V5.88852H191.879V9.00726L175.435 20.13H191.879Z" fill="var(--fill-0, white)"/>
</g>
</svg>
