<svg preserveAspectRatio="none" width="100%" height="100%" overflow="visible" style="display: block;" viewBox="0 0 146.297 9.37804" fill="none" xmlns="http://www.w3.org/2000/svg">
<g id="Group">
<path id="Vector" d="M1.22135 9.2908H2.5699e-05V0.697906H6.06303V1.76656H1.22135V9.2908ZM1.09049 4.75445H5.51779V5.8013H1.09049V4.75445Z" fill="var(--fill-0, #DDA152)"/>
<path id="Vector_2" d="M10.1414 9.37803C9.57435 9.37803 9.09454 9.26899 8.68017 9.07271C8.26579 8.87642 7.93864 8.54928 7.69873 8.1349C7.45883 7.72052 7.34979 7.17529 7.34979 6.54282V2.7916H8.5275V6.41196C8.5275 7.04443 8.68016 7.52424 8.9855 7.85138C9.29083 8.17852 9.72701 8.33119 10.2722 8.33119C10.6866 8.33119 11.0356 8.24395 11.3409 8.06947C11.6462 7.895 11.8861 7.65509 12.0388 7.32795C12.1915 7.00081 12.2787 6.60825 12.2787 6.15025V2.7916H13.4564V9.2908H12.3441V7.52424L12.5404 7.98224C12.3223 8.41842 12.017 8.74556 11.5808 8.98547C11.1446 9.22537 10.6648 9.33442 10.1414 9.33442V9.37803Z" fill="var(--fill-0, #DDA152)"/>
<path id="Vector_3" d="M15.7245 9.29079V2.7916H16.8586V4.55816L16.7495 4.12197C16.924 3.66397 17.2293 3.33683 17.6655 3.09693C18.0799 2.85703 18.6251 2.74798 19.2358 2.74798V3.88207C19.2358 3.88207 19.1486 3.88207 19.105 3.88207H18.9741C18.3416 3.88207 17.84 4.07835 17.4693 4.44911C17.0985 4.81987 16.924 5.3651 16.924 6.08481V9.33441H15.7463L15.7245 9.29079Z" fill="var(--fill-0, #DDA152)"/>
<path id="Vector_4" d="M24.143 2.72618C24.6664 2.72618 25.1462 2.83522 25.5388 3.03151C25.9313 3.22779 26.2585 3.55493 26.4984 3.96931C26.7165 4.38369 26.8473 4.90711 26.8473 5.5614V9.31261H25.6696V5.69225C25.6696 5.05978 25.517 4.57997 25.2116 4.27464C24.9063 3.9475 24.4701 3.79484 23.9249 3.79484C23.5105 3.79484 23.1398 3.88207 22.8344 4.03474C22.5291 4.1874 22.2892 4.44912 22.1147 4.75445C21.9402 5.05978 21.8748 5.47416 21.8748 5.95397V9.31261H20.6971V2.81341H21.8312V4.57997L21.6349 4.12198C21.853 3.68579 22.1801 3.35865 22.6163 3.11874C23.0525 2.87884 23.5759 2.76979 24.1648 2.76979L24.143 2.72618Z" fill="var(--fill-0, #DDA152)"/>
<path id="Vector_5" d="M29.6171 1.52666C29.399 1.52666 29.2027 1.46124 29.05 1.30857C28.8974 1.1559 28.8319 0.981429 28.8319 0.763335C28.8319 0.545242 28.8974 0.348957 29.05 0.218101C29.2027 0.0654354 29.399 1.0641e-05 29.6171 1.0641e-05C29.8352 1.0641e-05 30.0315 0.0654354 30.1841 0.218101C30.3368 0.370767 30.4022 0.545242 30.4022 0.763335C30.4022 0.981429 30.3368 1.17771 30.1841 1.33038C30.0315 1.48305 29.8352 1.54847 29.5953 1.54847L29.6171 1.52666ZM29.0282 9.2908V2.79161H30.2059V9.2908H29.0282Z" fill="var(--fill-0, #DDA152)"/>
<path id="Vector_6" d="M31.5145 3.75122V2.76979H35.6582V3.75122H31.5145ZM34.6986 9.37803C34.0443 9.37803 33.5427 9.20356 33.172 8.85461C32.8012 8.50566 32.6267 8.00404 32.6267 7.34976V1.37399H33.8044V7.28434C33.8044 7.63329 33.8917 7.9168 34.0661 8.09128C34.2406 8.28756 34.5023 8.3748 34.8295 8.3748C35.2002 8.3748 35.5056 8.26575 35.7455 8.06947L36.1162 8.92004C35.9417 9.0727 35.7237 9.18175 35.4838 9.26899C35.2439 9.33442 34.9821 9.37803 34.6986 9.37803Z" fill="var(--fill-0, #DDA152)"/>
<path id="Vector_7" d="M40.2818 9.37803C39.7148 9.37803 39.235 9.26899 38.8206 9.07271C38.4062 8.87642 38.0791 8.54928 37.8392 8.1349C37.5993 7.72052 37.4902 7.17529 37.4902 6.54282V2.7916H38.6679V6.41196C38.6679 7.04443 38.8206 7.52424 39.1259 7.85138C39.4313 8.17852 39.8674 8.33119 40.4127 8.33119C40.827 8.33119 41.176 8.24395 41.4813 8.06947C41.7867 7.895 42.0266 7.65509 42.1792 7.32795C42.3319 7.00081 42.4191 6.60825 42.4191 6.15025V2.7916H43.5968V9.2908H42.4846V7.52424L42.6808 7.98224C42.4627 8.41842 42.1574 8.74556 41.7212 8.98547C41.285 9.22537 40.8052 9.33442 40.2818 9.33442V9.37803Z" fill="var(--fill-0, #DDA152)"/>
<path id="Vector_8" d="M45.8652 9.29079V2.7916H46.9993V4.55816L46.8903 4.12197C47.0647 3.66397 47.3701 3.33683 47.8063 3.09693C48.2206 2.85703 48.7659 2.74798 49.3765 2.74798V3.88207C49.3765 3.88207 49.2893 3.88207 49.2457 3.88207H49.1148C48.4824 3.88207 47.9807 4.07835 47.61 4.44911C47.2392 4.81987 47.0647 5.3651 47.0647 6.08481V9.33441H45.887L45.8652 9.29079Z" fill="var(--fill-0, #DDA152)"/>
<path id="Vector_9" d="M53.6511 9.37804C52.9532 9.37804 52.3425 9.22537 51.8191 8.94185C51.2957 8.65832 50.8813 8.26576 50.5978 7.76414C50.3143 7.26253 50.1616 6.69548 50.1616 6.0412C50.1616 5.38692 50.3143 4.81988 50.576 4.31826C50.8595 3.81665 51.2521 3.42408 51.7537 3.14055C52.2553 2.85703 52.8005 2.72618 53.433 2.72618C54.0655 2.72618 54.6107 2.85703 55.1123 3.14055C55.5921 3.42408 55.9629 3.81665 56.2464 4.31826C56.5299 4.81988 56.6608 5.40873 56.6608 6.08482C56.6608 6.12844 56.6608 6.19387 56.6608 6.2593C56.6608 6.32472 56.6608 6.39015 56.6608 6.45558H51.1212V5.60502H56.0501L55.5703 5.88854C55.5703 5.47416 55.4831 5.1034 55.3086 4.77626C55.1341 4.44912 54.8724 4.18741 54.5671 4.01293C54.2618 3.81665 53.891 3.72941 53.4766 3.72941C53.0623 3.72941 52.7133 3.81665 52.3862 4.01293C52.059 4.18741 51.8191 4.44912 51.6446 4.77626C51.4702 5.1034 51.3829 5.49597 51.3829 5.91035V6.10663C51.3829 6.54282 51.492 6.93539 51.6883 7.26253C51.8846 7.61148 52.1681 7.87319 52.5388 8.04766C52.9096 8.22214 53.3022 8.33119 53.782 8.33119C54.1745 8.33119 54.5235 8.26576 54.8288 8.1349C55.1341 8.00405 55.4177 7.80776 55.6576 7.54605L56.3118 8.30938C56.0283 8.65833 55.6576 8.92004 55.2214 9.09452C54.7852 9.26899 54.2836 9.35623 53.7602 9.35623L53.6511 9.37804Z" fill="var(--fill-0, #DDA152)"/>
<path id="Vector_10" d="M60.6302 3.75123V2.7698H64.774V3.75123H60.6302ZM61.7425 9.29081V2.20276C61.7425 1.57029 61.9388 1.04687 62.3095 0.676107C62.6803 0.283538 63.2037 0.109063 63.9016 0.109063C64.1633 0.109063 64.4032 0.130874 64.6431 0.196302C64.883 0.26173 65.0793 0.348966 65.232 0.479822L64.883 1.37401C64.7522 1.26496 64.6213 1.19953 64.4686 1.15591C64.316 1.11229 64.1415 1.06868 63.967 1.06868C63.6181 1.06868 63.3564 1.15591 63.1819 1.3522C63.0074 1.54848 62.9202 1.832 62.9202 2.20276V3.62037L62.942 9.29081H61.7643H61.7425Z" fill="var(--fill-0, #DDA152)"/>
<path id="Vector_11" d="M68.5906 9.37803C67.9363 9.37803 67.3692 9.22536 66.8458 8.94184C66.3224 8.65832 65.9298 8.26575 65.6463 7.76414C65.341 7.26252 65.2101 6.69548 65.2101 6.0412C65.2101 5.38692 65.3628 4.81987 65.6463 4.31826C65.9516 3.81664 66.3442 3.42407 66.8458 3.14055C67.3474 2.85703 67.9363 2.70437 68.5906 2.70437C69.2449 2.70437 69.8119 2.85703 70.3353 3.11874C70.8587 3.38045 71.2513 3.79483 71.5348 4.29645C71.8184 4.79806 71.971 5.36511 71.971 6.01939C71.971 6.67367 71.8184 7.24071 71.5348 7.74233C71.2513 8.24394 70.8369 8.63652 70.3353 8.92004C69.8337 9.20356 69.2449 9.35622 68.5906 9.35622V9.37803ZM68.5906 8.33118C69.005 8.33118 69.3757 8.24394 69.7247 8.04766C70.0736 7.85137 70.3135 7.58966 70.5098 7.24071C70.7061 6.89176 70.7933 6.49919 70.7933 6.0412C70.7933 5.5832 70.7061 5.16882 70.5098 4.84168C70.3135 4.49273 70.0518 4.23102 69.7247 4.05654C69.3975 3.86026 69.0268 3.77302 68.5906 3.77302C68.1544 3.77302 67.8054 3.86026 67.4783 4.05654C67.1511 4.25283 66.8894 4.51454 66.6932 4.84168C66.4969 5.19063 66.3878 5.5832 66.3878 6.0412C66.3878 6.49919 66.4969 6.91357 66.6932 7.24071C66.8894 7.58966 67.1511 7.85137 67.4783 8.04766C67.8054 8.24394 68.1762 8.33118 68.5906 8.33118Z" fill="var(--fill-0, #DDA152)"/>
<path id="Vector_12" d="M73.5848 9.29079V2.7916H74.7189V4.55816L74.6099 4.12197C74.7843 3.66397 75.0897 3.33683 75.5258 3.09693C75.9402 2.85703 76.4855 2.74798 77.0961 2.74798V3.88207C77.0961 3.88207 77.0089 3.88207 76.9653 3.88207H76.8344C76.202 3.88207 75.7003 4.07835 75.3296 4.44911C74.9588 4.81987 74.7843 5.3651 74.7843 6.08481V9.33441H73.6066L73.5848 9.29079Z" fill="var(--fill-0, #DDA152)"/>
<path id="Vector_13" d="M81.0001 3.75122V2.76979H85.1439V3.75122H81.0001ZM84.1624 9.37803C83.5082 9.37803 83.0065 9.20356 82.6358 8.85461C82.265 8.50566 82.0905 8.00404 82.0905 7.34976V1.37399H83.2682V7.28434C83.2682 7.63329 83.3555 7.9168 83.53 8.09128C83.7044 8.28756 83.9661 8.3748 84.2933 8.3748C84.664 8.3748 84.9694 8.26575 85.2093 8.06947L85.58 8.92004C85.4056 9.0727 85.1875 9.18175 84.9476 9.26899C84.7077 9.33442 84.446 9.37803 84.1624 9.37803Z" fill="var(--fill-0, #DDA152)"/>
<path id="Vector_14" d="M90.4872 2.72617C91.0106 2.72617 91.4904 2.83522 91.883 3.0315C92.2756 3.22779 92.6027 3.55493 92.8426 3.9693C93.0607 4.38368 93.1916 4.90711 93.1916 5.56139V9.3126H92.0139V5.69224C92.0139 5.05977 91.8612 4.57997 91.5559 4.27463C91.2505 3.94749 90.8143 3.79483 90.2691 3.79483C89.8547 3.79483 89.484 3.88206 89.1786 4.03473C88.8733 4.1874 88.6334 4.44911 88.4589 4.75444C88.2844 5.05977 88.219 5.47415 88.219 5.95396V9.3126H87.0413V0.196285H88.219V4.55816L87.9791 4.10016C88.1972 3.66397 88.5244 3.33683 88.9605 3.09693C89.3967 2.85703 89.9201 2.74798 90.509 2.74798L90.4872 2.72617Z" fill="var(--fill-0, #DDA152)"/>
<path id="Vector_15" d="M98.273 9.37804C97.5751 9.37804 96.9644 9.22537 96.441 8.94185C95.9176 8.65832 95.5032 8.26576 95.2197 7.76414C94.9361 7.26253 94.7835 6.69548 94.7835 6.0412C94.7835 5.38692 94.9361 4.81988 95.1979 4.31826C95.4814 3.81665 95.8739 3.42408 96.3756 3.14055C96.8772 2.85703 97.4224 2.72618 98.0549 2.72618C98.6873 2.72618 99.2326 2.85703 99.7342 3.14055C100.214 3.42408 100.585 3.81665 100.868 4.31826C101.152 4.81988 101.283 5.40873 101.283 6.08482C101.283 6.12844 101.283 6.19387 101.283 6.2593C101.283 6.32472 101.283 6.39015 101.283 6.45558H95.7431V5.60502H100.672L100.192 5.88854C100.192 5.47416 100.105 5.1034 99.9305 4.77626C99.756 4.44912 99.4943 4.18741 99.189 4.01293C98.8836 3.81665 98.5129 3.72941 98.0985 3.72941C97.6841 3.72941 97.3352 3.81665 97.008 4.01293C96.6809 4.18741 96.441 4.44912 96.2665 4.77626C96.092 5.1034 96.0048 5.49597 96.0048 5.91035V6.10663C96.0048 6.54282 96.1139 6.93539 96.3101 7.26253C96.5064 7.61148 96.7899 7.87319 97.1607 8.04766C97.5315 8.22214 97.924 8.33119 98.4038 8.33119C98.7964 8.33119 99.1453 8.26576 99.4507 8.1349C99.756 8.00405 100.04 7.80776 100.279 7.54605L100.934 8.30938C100.65 8.65833 100.279 8.92004 99.8432 9.09452C99.4071 9.26899 98.9054 9.35623 98.382 9.35623L98.273 9.37804Z" fill="var(--fill-0, #DDA152)"/>
<path id="Vector_16" d="M107.586 9.2908H106.364V0.697906H112.427V1.76656H107.586V9.2908ZM107.477 4.75445H111.904V5.8013H107.477V4.75445Z" fill="var(--fill-0, #DDA152)"/>
<path id="Vector_17" d="M116.528 9.37803C115.96 9.37803 115.481 9.26899 115.066 9.07271C114.652 8.87642 114.325 8.54928 114.085 8.1349C113.845 7.72052 113.736 7.17529 113.736 6.54282V2.7916H114.914V6.41196C114.914 7.04443 115.066 7.52424 115.372 7.85138C115.677 8.17852 116.113 8.33119 116.658 8.33119C117.073 8.33119 117.422 8.24395 117.727 8.06947C118.032 7.895 118.272 7.65509 118.425 7.32795C118.578 7.00081 118.665 6.60825 118.665 6.15025V2.7916H119.843V9.2908H118.73V7.52424L118.927 7.98224C118.708 8.41842 118.403 8.74556 117.967 8.98547C117.531 9.22537 117.051 9.33442 116.528 9.33442V9.37803Z" fill="var(--fill-0, #DDA152)"/>
<path id="Vector_18" d="M121.173 3.75122V2.76979H125.317V3.75122H121.173ZM124.335 9.37803C123.681 9.37803 123.179 9.20356 122.809 8.85461C122.438 8.50566 122.263 8.00404 122.263 7.34976V1.37399H123.441V7.28434C123.441 7.63329 123.528 7.9168 123.703 8.09128C123.877 8.28756 124.139 8.3748 124.466 8.3748C124.837 8.3748 125.142 8.26575 125.382 8.06947L125.753 8.92004C125.578 9.0727 125.36 9.18175 125.12 9.26899C124.88 9.33442 124.619 9.37803 124.335 9.37803Z" fill="var(--fill-0, #DDA152)"/>
<path id="Vector_19" d="M129.918 9.37803C129.351 9.37803 128.872 9.26899 128.457 9.07271C128.043 8.87642 127.716 8.54928 127.476 8.1349C127.236 7.72052 127.127 7.17529 127.127 6.54282V2.7916H128.305V6.41196C128.305 7.04443 128.457 7.52424 128.763 7.85138C129.068 8.17852 129.504 8.33119 130.049 8.33119C130.464 8.33119 130.813 8.24395 131.118 8.06947C131.423 7.895 131.663 7.65509 131.816 7.32795C131.968 7.00081 132.056 6.60825 132.056 6.15025V2.7916H133.233V9.2908H132.121V7.52424L132.317 7.98224C132.099 8.41842 131.794 8.74556 131.358 8.98547C130.922 9.22537 130.442 9.33442 129.918 9.33442V9.37803Z" fill="var(--fill-0, #DDA152)"/>
<path id="Vector_20" d="M135.502 9.29079V2.7916H136.636V4.55816L136.527 4.12197C136.701 3.66397 137.007 3.33683 137.443 3.09693C137.857 2.85703 138.402 2.74798 139.013 2.74798V3.88207C139.013 3.88207 138.926 3.88207 138.882 3.88207H138.751C138.119 3.88207 137.617 4.07835 137.246 4.44911C136.876 4.81987 136.701 5.3651 136.701 6.08481V9.33441H135.523L135.502 9.29079Z" fill="var(--fill-0, #DDA152)"/>
<path id="Vector_21" d="M143.288 9.37804C142.59 9.37804 141.979 9.22537 141.456 8.94185C140.932 8.65832 140.518 8.26576 140.234 7.76414C139.951 7.26253 139.798 6.69548 139.798 6.0412C139.798 5.38692 139.951 4.81988 140.212 4.31826C140.496 3.81665 140.888 3.42408 141.39 3.14055C141.892 2.85703 142.437 2.72618 143.069 2.72618C143.702 2.72618 144.247 2.85703 144.749 3.14055C145.229 3.42408 145.599 3.81665 145.883 4.31826C146.166 4.81988 146.297 5.40873 146.297 6.08482C146.297 6.12844 146.297 6.19387 146.297 6.2593C146.297 6.32472 146.297 6.39015 146.297 6.45558H140.758V5.60502H145.687L145.207 5.88854C145.207 5.47416 145.12 5.1034 144.945 4.77626C144.771 4.44912 144.509 4.18741 144.204 4.01293C143.898 3.81665 143.527 3.72941 143.113 3.72941C142.699 3.72941 142.35 3.81665 142.023 4.01293C141.695 4.18741 141.456 4.44912 141.281 4.77626C141.107 5.1034 141.019 5.49597 141.019 5.91035V6.10663C141.019 6.54282 141.128 6.93539 141.325 7.26253C141.521 7.61148 141.804 7.87319 142.175 8.04766C142.546 8.22214 142.939 8.33119 143.418 8.33119C143.811 8.33119 144.16 8.26576 144.465 8.1349C144.771 8.00405 145.054 7.80776 145.294 7.54605L145.948 8.30938C145.665 8.65833 145.294 8.92004 144.858 9.09452C144.422 9.26899 143.92 9.35623 143.397 9.35623L143.288 9.37804Z" fill="var(--fill-0, #DDA152)"/>
</g>
</svg>
